<mxfile host="Electron" agent="Mozilla/5.0 (Windows NT 10.0; Win64; x64) AppleWebKit/537.36 (KHTML, like Gecko) draw.io/28.1.2 Chrome/138.0.7204.243 Electron/37.4.0 Safari/537.36" version="28.1.2">
  <diagram name="Seite-1" id="uQBup87kuhkB3P__0d6z">
    <mxGraphModel dx="1042" dy="722" grid="1" gridSize="10" guides="1" tooltips="1" connect="1" arrows="1" fold="1" page="1" pageScale="1" pageWidth="827" pageHeight="1169" math="0" shadow="0">
      <root>
        <mxCell id="0" />
        <mxCell id="1" parent="0" />
        <mxCell id="ARIf4EPjWxZDdNr0s4NG-4" value="" style="edgeStyle=orthogonalEdgeStyle;rounded=0;orthogonalLoop=1;jettySize=auto;html=1;" edge="1" parent="1" source="ARIf4EPjWxZDdNr0s4NG-1" target="ARIf4EPjWxZDdNr0s4NG-2">
          <mxGeometry relative="1" as="geometry" />
        </mxCell>
        <mxCell id="ARIf4EPjWxZDdNr0s4NG-1" value="Start" style="ellipse;whiteSpace=wrap;html=1;" vertex="1" parent="1">
          <mxGeometry x="400" y="20" width="120" height="80" as="geometry" />
        </mxCell>
        <mxCell id="ARIf4EPjWxZDdNr0s4NG-5" value="" style="edgeStyle=orthogonalEdgeStyle;rounded=0;orthogonalLoop=1;jettySize=auto;html=1;" edge="1" parent="1" source="ARIf4EPjWxZDdNr0s4NG-2" target="ARIf4EPjWxZDdNr0s4NG-3">
          <mxGeometry relative="1" as="geometry" />
        </mxCell>
        <mxCell id="ARIf4EPjWxZDdNr0s4NG-2" value="print: Hello!" style="whiteSpace=wrap;html=1;aspect=fixed;" vertex="1" parent="1">
          <mxGeometry x="420" y="210" width="80" height="80" as="geometry" />
        </mxCell>
        <mxCell id="ARIf4EPjWxZDdNr0s4NG-3" value="End&lt;div&gt;&lt;br&gt;&lt;/div&gt;" style="ellipse;whiteSpace=wrap;html=1;" vertex="1" parent="1">
          <mxGeometry x="400" y="360" width="120" height="80" as="geometry" />
        </mxCell>
        <mxCell id="ARIf4EPjWxZDdNr0s4NG-6" value="this process shall be written in python!" style="shape=document;whiteSpace=wrap;html=1;boundedLbl=1;" vertex="1" parent="1">
          <mxGeometry x="30" y="210" width="270" height="190" as="geometry" />
        </mxCell>
        <mxCell id="ARIf4EPjWxZDdNr0s4NG-8" value="&lt;h1 style=&quot;margin-top: 0px;&quot;&gt;Pseudo Code&lt;/h1&gt;&lt;div&gt;&lt;br&gt;&lt;/div&gt;&lt;div&gt;START&lt;/div&gt;&lt;div&gt;PRINT &quot;Hello!&quot;&lt;/div&gt;&lt;div&gt;END&lt;/div&gt;" style="text;html=1;whiteSpace=wrap;overflow=hidden;rounded=0;" vertex="1" parent="1">
          <mxGeometry x="540" y="170" width="240" height="200" as="geometry" />
        </mxCell>
      </root>
    </mxGraphModel>
  </diagram>
</mxfile>
